<svg width="272" height="237" viewBox="0 0 272 237" fill="none" xmlns="http://www.w3.org/2000/svg">
<style>
  .mark { fill: #10100e; }
  @media (prefers-color-scheme: dark) { .mark { fill: #FFFFE2; } }
</style>
<g clip-path="url(#clip0_3_110)">
<path class="mark" d="M165.695 0H106.605C103.829 0 101.259 1.48595 99.8521 3.91238L74.8281 47.4C71.8268 52.6102 75.5785 59.1183 81.5812 59.1183H131.667C134.443 59.1183 137.013 60.6043 138.42 63.0307L197.453 165.618C200.455 170.828 196.703 177.336 190.7 177.336H149.656C143.654 177.336 139.921 183.844 142.903 189.055L167.927 232.542C169.315 234.969 171.885 236.455 174.68 236.455H233.77C236.546 236.455 239.116 234.969 240.523 232.542L270.049 181.249C271.437 178.841 271.437 175.85 270.049 173.443L172.448 3.91238C171.06 1.50476 168.49 0 165.695 0Z"/>
<path class="mark" d="M30.6141 121.923L1.05047 173.217C-0.337666 175.624 -0.337666 178.615 1.05047 181.023L26.1307 224.529C29.1321 229.721 36.6168 229.721 39.6182 224.529L64.6422 181.023C66.0303 178.615 68.6003 177.11 71.3765 177.11H121.481C127.465 177.11 131.217 170.602 128.215 165.411L103.135 121.904C101.747 119.497 99.1768 118.011 96.4005 118.011H37.3484C34.5721 118.011 32.0022 119.497 30.6141 121.904V121.923Z"/>
</g>
<defs>
<clipPath id="clip0_3_110">
<rect width="272" height="237" fill="white"/>
</clipPath>
</defs>
</svg>
